<?xml version="1.0" encoding="UTF-8"?>
<svg width="700pt" height="700pt" version="1.1" viewBox="0 0 700 700" xmlns="http://www.w3.org/2000/svg" xmlns:xlink="http://www.w3.org/1999/xlink">
 <defs>
  <symbol id="u" overflow="visible">
   <path d="m6.9531-0.42188c-0.36719 0.1875-0.74219 0.32812-1.125 0.42188-0.38672 0.09375-0.79297 0.14062-1.2188 0.14062-1.2617 0-2.2617-0.34766-3-1.0469-0.73047-0.70703-1.0938-1.6641-1.0938-2.875 0-1.207 0.36328-2.1602 1.0938-2.8594 0.73828-0.70703 1.7383-1.0625 3-1.0625 0.42578 0 0.83203 0.046875 1.2188 0.14062 0.38281 0.09375 0.75781 0.23438 1.125 0.42188v1.5625c-0.36719-0.23828-0.72656-0.41406-1.0781-0.53125-0.34375-0.11328-0.71484-0.17188-1.1094-0.17188-0.6875 0-1.2344 0.22656-1.6406 0.67188-0.39844 0.4375-0.59375 1.0469-0.59375 1.8281s0.19531 1.3984 0.59375 1.8438c0.40625 0.44922 0.95312 0.67188 1.6406 0.67188 0.39453 0 0.76562-0.054687 1.1094-0.17188 0.35156-0.11328 0.71094-0.29688 1.0781-0.54688z"/>
  </symbol>
  <symbol id="d" overflow="visible">
   <path d="m5.0938-4.125c-0.16797-0.070312-0.32812-0.125-0.48438-0.15625-0.15625-0.039062-0.3125-0.0625-0.46875-0.0625-0.46875 0-0.82812 0.15234-1.0781 0.45312-0.25 0.29297-0.375 0.71875-0.375 1.2812v2.6094h-1.8125v-5.6719h1.8125v0.9375c0.22656-0.375 0.49219-0.64453 0.79688-0.8125 0.30078-0.17578 0.66406-0.26562 1.0938-0.26562 0.0625 0 0.125 0.007812 0.1875 0.015625 0.070313 0 0.17578 0.011719 0.3125 0.03125z"/>
  </symbol>
  <symbol id="b" overflow="visible">
   <path d="m6.5312-2.8594v0.53125h-4.2344c0.039063 0.41797 0.19141 0.73438 0.45312 0.95312 0.26953 0.21094 0.64062 0.3125 1.1094 0.3125 0.38281 0 0.77344-0.050781 1.1719-0.15625 0.40625-0.11328 0.81641-0.28906 1.2344-0.53125v1.4062c-0.42969 0.16797-0.85547 0.28906-1.2812 0.35938-0.42969 0.082031-0.85938 0.125-1.2969 0.125-1.0234 0-1.8203-0.25781-2.3906-0.78125-0.5625-0.51953-0.84375-1.25-0.84375-2.1875 0-0.92578 0.27344-1.6562 0.82812-2.1875 0.5625-0.53125 1.332-0.79688 2.3125-0.79688 0.88281 0 1.5938 0.27344 2.125 0.8125 0.53906 0.53125 0.8125 1.2461 0.8125 2.1406zm-1.8594-0.59375c0-0.34375-0.10547-0.61719-0.3125-0.82812-0.19922-0.21875-0.46094-0.32812-0.78125-0.32812-0.34375 0-0.63281 0.10156-0.85938 0.29688-0.21875 0.19922-0.35547 0.48438-0.40625 0.85938z"/>
  </symbol>
  <symbol id="l" overflow="visible">
   <path d="m3.4219-2.5469c-0.38672 0-0.67188 0.0625-0.85938 0.1875s-0.28125 0.3125-0.28125 0.5625c0 0.23047 0.070312 0.41406 0.21875 0.54688 0.15625 0.125 0.36719 0.1875 0.64062 0.1875 0.34375 0 0.62891-0.11719 0.85938-0.35938 0.23828-0.25 0.35938-0.55469 0.35938-0.92188v-0.20312zm2.7656-0.6875v3.2344h-1.8281v-0.84375c-0.25 0.34375-0.52734 0.59375-0.82812 0.75-0.30469 0.15625-0.67188 0.23438-1.1094 0.23438-0.58594 0-1.0586-0.16406-1.4219-0.5-0.36719-0.34375-0.54688-0.78906-0.54688-1.3438 0-0.66406 0.22266-1.1484 0.67188-1.4531 0.45703-0.3125 1.1758-0.46875 2.1562-0.46875h1.0781v-0.15625c0-0.28125-0.11719-0.48828-0.34375-0.625-0.23047-0.13281-0.58594-0.20312-1.0625-0.20312-0.38672 0-0.74609 0.042969-1.0781 0.125-0.33594 0.074219-0.64844 0.1875-0.9375 0.34375v-1.375c0.39453-0.09375 0.78516-0.16406 1.1719-0.21875 0.39453-0.050781 0.78516-0.078125 1.1719-0.078125 1.0312 0 1.7695 0.20312 2.2188 0.60938 0.45703 0.40625 0.6875 1.0625 0.6875 1.9688z"/>
  </symbol>
  <symbol id="a" overflow="visible">
   <path d="m2.8594-7.2812v1.6094h1.8594v1.2969h-1.8594v2.4062c0 0.26172 0.050781 0.4375 0.15625 0.53125 0.10156 0.09375 0.30469 0.14062 0.60938 0.14062h0.9375v1.2969h-1.5469c-0.71875 0-1.2305-0.14453-1.5312-0.4375-0.30469-0.30078-0.45312-0.8125-0.45312-1.5312v-2.4062h-0.89062v-1.2969h0.89062v-1.6094z"/>
  </symbol>
  <symbol id="k" overflow="visible">
   <path d="m4.7344-4.8438v-3.0312h1.8281v7.875h-1.8281v-0.82812c-0.25 0.34375-0.52734 0.59375-0.82812 0.75-0.30469 0.14453-0.65234 0.21875-1.0469 0.21875-0.69922 0-1.2734-0.27344-1.7188-0.82812-0.44922-0.55078-0.67188-1.2656-0.67188-2.1406s0.22266-1.5859 0.67188-2.1406c0.44531-0.5625 1.0195-0.84375 1.7188-0.84375 0.39453 0 0.74219 0.078125 1.0469 0.23438 0.30078 0.15625 0.57812 0.40234 0.82812 0.73438zm-1.2031 3.6719c0.39453 0 0.69141-0.14062 0.89062-0.42188 0.20703-0.28125 0.3125-0.69141 0.3125-1.2344 0-0.53906-0.10547-0.95312-0.3125-1.2344-0.19922-0.28906-0.49609-0.4375-0.89062-0.4375-0.38672 0-0.68359 0.14844-0.89062 0.4375-0.19922 0.28125-0.29688 0.69531-0.29688 1.2344 0 0.54297 0.097656 0.95312 0.29688 1.2344 0.20703 0.28125 0.50391 0.42188 0.89062 0.42188z"/>
  </symbol>
  <symbol id="j" overflow="visible">
   <path d="m3.8906-1.1719c0.38281 0 0.67969-0.14062 0.89062-0.42188 0.20703-0.28125 0.3125-0.69141 0.3125-1.2344 0-0.53906-0.10547-0.95312-0.3125-1.2344-0.21094-0.28906-0.50781-0.4375-0.89062-0.4375-0.38672 0-0.68359 0.14844-0.89062 0.4375-0.21094 0.28125-0.3125 0.69531-0.3125 1.2344 0 0.53125 0.10156 0.94531 0.3125 1.2344 0.20703 0.28125 0.50391 0.42188 0.89062 0.42188zm-1.2031-3.6719c0.25-0.33203 0.52344-0.57812 0.82812-0.73438 0.30078-0.15625 0.64844-0.23438 1.0469-0.23438 0.69531 0 1.2695 0.28125 1.7188 0.84375 0.44531 0.55469 0.67188 1.2656 0.67188 2.1406s-0.22656 1.5898-0.67188 2.1406c-0.44922 0.55469-1.0234 0.82812-1.7188 0.82812-0.39844 0-0.74609-0.078125-1.0469-0.23438-0.30469-0.15625-0.57812-0.39844-0.82812-0.73438v0.82812h-1.8125v-7.875h1.8125z"/>
  </symbol>
  <symbol id="i" overflow="visible">
   <path d="m0.125-5.6719h1.8125l1.5312 3.8438 1.2969-3.8438h1.8125l-2.3906 6.2031c-0.24219 0.63281-0.52344 1.0781-0.84375 1.3281-0.3125 0.25-0.73047 0.375-1.25 0.375h-1.0625v-1.1875h0.57812c0.30078 0 0.51953-0.054687 0.65625-0.15625 0.14453-0.09375 0.25781-0.26562 0.34375-0.51562l0.046875-0.15625z"/>
  </symbol>
  <symbol id="h" overflow="visible">
   <path d="m0.046875-7.5625h1.9688l2 5.5781 2-5.5781h1.9688l-2.8125 7.5625h-2.3125z"/>
  </symbol>
  <symbol id="g" overflow="visible">
   <path d="m5.4531-5.5v1.4844c-0.24219-0.16406-0.48438-0.28906-0.73438-0.375-0.25-0.082031-0.51172-0.125-0.78125-0.125-0.5 0-0.89844 0.15234-1.1875 0.45312-0.28125 0.29297-0.42188 0.70312-0.42188 1.2344s0.14062 0.94531 0.42188 1.2344c0.28906 0.29297 0.6875 0.4375 1.1875 0.4375 0.28125 0 0.54688-0.039062 0.79688-0.125 0.25781-0.082031 0.5-0.20703 0.71875-0.375v1.4844c-0.28125 0.10547-0.57031 0.17969-0.85938 0.23438-0.29297 0.050781-0.58594 0.078125-0.875 0.078125-1.0312 0-1.8359-0.25781-2.4062-0.78125-0.57422-0.51953-0.85938-1.25-0.85938-2.1875s0.28516-1.6641 0.85938-2.1875c0.57031-0.53125 1.375-0.79688 2.4062-0.79688 0.28906 0 0.58203 0.027344 0.875 0.078125 0.28906 0.054687 0.57812 0.13281 0.85938 0.23438z"/>
  </symbol>
  <symbol id="c" overflow="visible">
   <path d="m3.5781-4.5156c-0.40625 0-0.71875 0.14844-0.9375 0.4375-0.21094 0.29297-0.3125 0.71094-0.3125 1.25 0 0.54297 0.10156 0.96094 0.3125 1.25 0.21875 0.28125 0.53125 0.42188 0.9375 0.42188 0.39453 0 0.69531-0.14062 0.90625-0.42188 0.20703-0.28906 0.3125-0.70703 0.3125-1.25 0-0.53906-0.10547-0.95703-0.3125-1.25-0.21094-0.28906-0.51172-0.4375-0.90625-0.4375zm0-1.2969c0.96875 0 1.7266 0.26562 2.2812 0.79688 0.55078 0.52344 0.82812 1.25 0.82812 2.1875 0 0.92969-0.27734 1.6562-0.82812 2.1875-0.55469 0.52344-1.3125 0.78125-2.2812 0.78125-0.98047 0-1.7461-0.25781-2.2969-0.78125-0.55469-0.53125-0.82812-1.2578-0.82812-2.1875 0-0.9375 0.27344-1.6641 0.82812-2.1875 0.55078-0.53125 1.3164-0.79688 2.2969-0.79688z"/>
  </symbol>
  <symbol id="t" overflow="visible">
   <path d="m5.2969-5.5v1.375c-0.38672-0.15625-0.76172-0.27344-1.125-0.35938-0.35547-0.082031-0.69531-0.125-1.0156-0.125-0.34375 0-0.60156 0.046875-0.76562 0.14062-0.16797 0.085938-0.25 0.21484-0.25 0.39062 0 0.14844 0.0625 0.26172 0.1875 0.34375 0.125 0.074219 0.35156 0.125 0.6875 0.15625l0.3125 0.046875c0.92578 0.125 1.5508 0.32422 1.875 0.59375 0.32031 0.27344 0.48438 0.69531 0.48438 1.2656 0 0.60547-0.22656 1.0586-0.67188 1.3594-0.44922 0.30469-1.1172 0.45312-2 0.45312-0.375 0-0.76562-0.03125-1.1719-0.09375-0.39844-0.050781-0.80469-0.13281-1.2188-0.25v-1.375c0.36328 0.16797 0.73438 0.29688 1.1094 0.39062 0.38281 0.085938 0.76953 0.125 1.1562 0.125 0.35156 0 0.61719-0.046875 0.79688-0.14062 0.1875-0.10156 0.28125-0.25 0.28125-0.4375 0-0.16406-0.0625-0.28516-0.1875-0.35938-0.125-0.082031-0.37109-0.14453-0.73438-0.1875l-0.32812-0.046875c-0.80469-0.09375-1.3711-0.27344-1.7031-0.54688-0.32422-0.28125-0.48438-0.69531-0.48438-1.25 0-0.60156 0.20312-1.0508 0.60938-1.3438 0.41406-0.28906 1.0508-0.4375 1.9062-0.4375 0.33203 0 0.67969 0.027344 1.0469 0.078125 0.375 0.054687 0.77344 0.13281 1.2031 0.23438z"/>
  </symbol>
  <symbol id="f" overflow="visible">
   <path d="m0.95312-7.5625h3.2344c0.96875 0 1.707 0.21484 2.2188 0.64062 0.50781 0.42969 0.76562 1.0391 0.76562 1.8281 0 0.79297-0.25781 1.4023-0.76562 1.8281-0.51172 0.42969-1.25 0.64062-2.2188 0.64062h-1.2812v2.625h-1.9531zm1.9531 1.4062v2.125h1.0781c0.375 0 0.66406-0.09375 0.875-0.28125 0.20703-0.1875 0.3125-0.44531 0.3125-0.78125 0-0.34375-0.10547-0.60156-0.3125-0.78125-0.21094-0.1875-0.5-0.28125-0.875-0.28125z"/>
  </symbol>
  <symbol id="s" overflow="visible">
   <path d="m0.875-5.6719h1.8125v5.6719h-1.8125zm0-2.2031h1.8125v1.4688h-1.8125z"/>
  </symbol>
  <symbol id="e" overflow="visible">
   <path d="m6.5781-3.4531v3.4531h-1.8281v-2.6406c0-0.48828-0.011719-0.82812-0.03125-1.0156-0.023438-0.1875-0.058594-0.32031-0.10938-0.40625-0.074219-0.125-0.17188-0.21875-0.29688-0.28125-0.11719-0.0625-0.25-0.09375-0.40625-0.09375-0.38672 0-0.6875 0.14844-0.90625 0.4375-0.21094 0.29297-0.3125 0.69531-0.3125 1.2031v2.7969h-1.8125v-5.6719h1.8125v0.82812c0.26953-0.33203 0.55469-0.57812 0.85938-0.73438 0.3125-0.15625 0.65625-0.23438 1.0312-0.23438 0.65625 0 1.1484 0.20312 1.4844 0.60938 0.34375 0.39844 0.51562 0.98047 0.51562 1.75z"/>
  </symbol>
  <symbol id="r" overflow="visible">
   <path d="m4.6094-7.875v1.1875h-1c-0.26172 0-0.44531 0.046875-0.54688 0.14062-0.10547 0.09375-0.15625 0.25781-0.15625 0.48438v0.39062h1.5625v1.2969h-1.5625v4.375h-1.8125v-4.375h-0.89062v-1.2969h0.89062v-0.39062c0-0.625 0.17188-1.082 0.51562-1.375 0.34375-0.28906 0.87891-0.4375 1.6094-0.4375z"/>
  </symbol>
  <symbol id="q" overflow="visible">
   <path d="m6.125-4.7344c0.22656-0.35156 0.5-0.61719 0.8125-0.79688 0.32031-0.1875 0.67188-0.28125 1.0469-0.28125 0.65625 0 1.1484 0.20312 1.4844 0.60938 0.34375 0.39844 0.51562 0.98047 0.51562 1.75v3.4531h-1.8125v-2.9531-0.14062-0.20312c0-0.40625-0.058594-0.69531-0.17188-0.875-0.11719-0.17578-0.30859-0.26562-0.57812-0.26562-0.34375 0-0.60938 0.14062-0.79688 0.42188s-0.28125 0.69531-0.28125 1.2344v2.7812h-1.8281v-2.9531c0-0.63281-0.058594-1.0391-0.17188-1.2188-0.10547-0.17578-0.29297-0.26562-0.5625-0.26562-0.35547 0-0.625 0.14062-0.8125 0.42188s-0.28125 0.6875-0.28125 1.2188v2.7969h-1.8281v-5.6719h1.8281v0.82812c0.21875-0.32031 0.47266-0.5625 0.76562-0.71875 0.28906-0.16406 0.60938-0.25 0.95312-0.25 0.39453 0 0.73828 0.09375 1.0312 0.28125 0.30078 0.1875 0.53125 0.45312 0.6875 0.79688z"/>
  </symbol>
  <symbol id="p" overflow="visible">
   <path d="m6.5781-3.4531v3.4531h-1.8281v-2.6406c0-0.48828-0.011719-0.82812-0.03125-1.0156-0.023438-0.1875-0.058594-0.32031-0.10938-0.40625-0.074219-0.125-0.17188-0.21875-0.29688-0.28125-0.11719-0.0625-0.25-0.09375-0.40625-0.09375-0.38672 0-0.6875 0.14844-0.90625 0.4375-0.21094 0.29297-0.3125 0.69531-0.3125 1.2031v2.7969h-1.8125v-7.875h1.8125v3.0312c0.26953-0.33203 0.55469-0.57812 0.85938-0.73438 0.3125-0.15625 0.65625-0.23438 1.0312-0.23438 0.65625 0 1.1484 0.20312 1.4844 0.60938 0.34375 0.39844 0.51562 0.98047 0.51562 1.75z"/>
  </symbol>
  <symbol id="o" overflow="visible">
   <path d="m0.95312-7.5625h2.1719l2.75 5.1875v-5.1875h1.8594v7.5625h-2.1875l-2.75-5.1875v5.1875h-1.8438z"/>
  </symbol>
  <symbol id="n" overflow="visible">
   <path d="m0.8125-2.2031v-3.4688h1.8281v0.5625c0 0.3125-0.007813 0.70312-0.015625 1.1719v0.92188c0 0.46094 0.007812 0.78906 0.03125 0.98438 0.019531 0.19922 0.0625 0.34375 0.125 0.4375 0.070312 0.11719 0.16406 0.21094 0.28125 0.28125 0.125 0.0625 0.26562 0.09375 0.42188 0.09375 0.375 0 0.67188-0.14453 0.89062-0.4375 0.21875-0.28906 0.32812-0.69531 0.32812-1.2188v-2.7969h1.8125v5.6719h-1.8125v-0.82812c-0.27344 0.33594-0.5625 0.57812-0.875 0.73438-0.30469 0.15625-0.63672 0.23438-1 0.23438-0.65625 0-1.1562-0.19531-1.5-0.59375-0.34375-0.40625-0.51562-0.98828-0.51562-1.75z"/>
  </symbol>
  <symbol id="m" overflow="visible">
   <path d="m0.875-5.6719h1.8125v5.5781c0 0.75-0.18359 1.3203-0.54688 1.7188-0.36719 0.40625-0.89844 0.60938-1.5938 0.60938h-0.89062v-1.1875h0.3125c0.34375 0 0.57812-0.078125 0.70312-0.23438 0.13281-0.15625 0.20312-0.46094 0.20312-0.90625zm0-2.2031h1.8125v1.4688h-1.8125z"/>
  </symbol>
 </defs>
 <g>
  <path d="m535.89 137.74c-14.723-18.312-33.773-33.762-52.328-48.039-57.156-43.973-153.05-61.43-223.7-28.684-40.805 18.914-82.914 52.09-103.98 93.238-50.773 79.578-44.973 189.12 12.758 263.72 83.645 108.08 273.59 122.86 366.43 4.7344 26.957-34.297 43.086-107.34 43.621-151.63 0.57422-47.559-12.703-95.902-42.801-133.34zm-80.152 338.32c-70.09 34.355-183.61 30.082-256.59-36.723-51.855-47.469-74.133-116.86-68.5-184.55 17.355 7.9688 20.348 7.9297 95.84 35.199-30.137 46.969-12.359 56.98-4.2266 73.75 3.5742 13.543-0.50391 22.59 3.0352 31.797 7.5938 19.754 37.16 14.344 46.414 14.992 11.836 0.82812 18.059 7.2109 27.203 13.328 15.559 10.41 37.25 2.4883 56.574 16.23 5.5586 3.9531 7.2891 5.418 14.922 7.25 25.371 14.113 33.883-2.957 52.699-8.8555 12.598-3.9531 25.254 0.074219 32.691-12.523 7.2422-12.27 9.4492-27.109 6.9219-40.996 23.43 9.4258 47.332 17.441 72.297 22.09-18.598 29.914-48.117 53.742-79.281 69.016zm-17.453-63.34c9.7305-9.3125 9.9922-22.477 7.4805-34.84 4.9453 2.125 9.9102 4.207 14.891 6.2344-0.40234 0.21875-0.69531 0.60547-0.64844 1.1484 0.73438 8.6562 0.63672 21.305-3.125 31.16-2.6992 2.4219-5.1719 5.125-7.8633 7.5547-6.8672 6.1875-13.574 5.2383-21.812 7.1602-17.066 3.9883-25 16.637-46.566 15.879-5.1719-1.707-9.8516-4.8789-14.426-7.7695-27.93-17.633-38.574-11.551-53.402-14.66-17.66-3.707-18.047-19.102-47.879-18.387-2.2578 0.054687-0.89844 0.058593-2.7422-0.20703-12.609-1.8125-27.297 2.2422-33.258-12.176-2.6133-10.328 3.0234-15.863-3.9414-30.996-0.91797-3.2812-2.4648-6.5039-5.1328-9.7344-3.9141-7.0547-7.5234-14.168-6.8906-23.082 1.0391-14.625 9.4609-26.559 16.402-38.977 117.7 42.496 145.3 56.059 214.07 85.855 1.418 12.27 2.8125 24.922-6.3164 34.832-0.6875 0.73438 0.44922 1.6797 1.1562 1.0039zm17.5 6.2734c-4.8555 10.176-11.223 11.445-18.715 12.676 9.2109-1.7891 11.156-4.6641 18.715-12.676zm-91.543 24.629c-3.3555-1.4609-5.1875-2.8477-8.2969-5.1953 2.7969 1.6562 5.5391 3.4453 8.2969 5.1953zm95.926-138.87c-1.0273-35.938-14.395-38.027-4.7109-77.836 3.0977-12.727 4.0938-25.66 1.2695-38.426 2.0938-11.426 0.98047-27.723-7.8984-34.605-6.6562-10.074-21.375-7.7305-31.309-1.0508-9.3281 6.2695-14.598 16.602-19.582 26.336-9.9844 19.496-9.7891 21.652-12.047 34.574-7.2852-4.3164-9.4141-12.582-15.82-17.637-5.1133-4.0312-8.9375-2.3672-15.016-4.0273-2.0742-23.875-19.008-81.395-41.801-87.715-4.5469-1.2617-14.219-1.3945-18.668 0.94141-26.305-7.7344-39.691 26.699-42.527 46.324-2.1211 14.68-2.0469 29.516-2.3633 44.309-0.32812 15.559-3.8672 31.512-3.5547 46.93-33.41-13.215-66.918-26.188-100.66-38.461-2.9141-1.0625-4.832 3.2188-1.9258 4.4648 39.824 17.051 80.055 33.184 120.37 49.102-0.41406 0.80859 0.34766 1.2539 0.73047 0.82812 0.12109-0.13281 0.23437-0.26562 0.35156-0.40234 189.29 74.715 222.14 89.441 287.2 110.44-3.7891 10.945-7.7148 21.41-13.27 31.512-0.56641-0.63281-1.3438-1.1133-2.3711-1.3047-71.656-13.34-107.55-45.383-303.67-114.76 0.46484-1.1289-1.3398-2.1523-2.2227-0.78125-4.1445-1.4688-81.496-28.793-99.613-33.066 3.082-30.484 11.824-60.512 26.105-87.941 23.332-35.023 55.602-65.328 92.152-85.984 40.699-23.004 88.676-28.73 134.33-19.879 57.91 11.227 79.352 25.082 123.31 64.18 33.645 29.93 54.141 69.672 60.664 114.21 6.1602 42.055 0.070312 86.086-13.07 126.77-31.742-10.176-63.062-21.641-94.184-33.652 1.1602-7.6016 0.015625-15.852-0.19922-23.383zm-194.27-54.047c-5.9961-2.3867-11.996-4.7773-17.996-7.1523 3.5391-6.1523 4.8594-13.336 5.5625-20.512 0.10156-0.042968 0.19141-0.125 0.23438-0.27344 4.2148-13.902 2.043-30.117 1.9922-44.469-0.10547-28.531 5.5703-60.195 32.379-69.918 1.0742-0.12109 2.1523-0.16797 3.2227-0.16016-4.4453 5.8203-5.6328 16.793-6.4453 22.496-1.7422 12.203-5.1602 66.652-4.832 91.012-0.41797 0.38281-0.29687 0.71484 0.011719 0.97656 0.007813 0.60156 0.003907 1.2031 0.019531 1.8047 0.039063 1.9062 2.832 1.7773 3.0352 0.019532 21.906-0.73047 27.516 11.566 36.984 18.887 8.5156 6.582 16.941 5.1406 26.949 6.8281 14.438 2.4336 13.418 14.977 19.863 17.484 5.2773 2.0547 9.1484-2.1445 10.207-6.8203 1.4805-6.5352 0.90234-13.363 2.75-19.953 1.9258-6.8711 5.8164-12.953 7.7539-19.777 3.0664-10.797-0.85156-12.664 11.461-37.461 5.5977-11.27 11.367-23.793 22.844-30.129 6.5742-3.6289 13.785-5.1992 19.539-2.7773-20.211-2.875-28.457 25.129-31.797 45.312-0.66016 3.9844 0.09375 6.0391 1.6094 9.5977 2.5859 1.9023 3.8594 4.6211 3.8203 8.1523-1.5078 6.5234-1.5625 10.441-1.3711 17.148 0.24219 8.4102-2.4922 28.578 9.0586 31.027 11.176 2.3711 17.613-11.355 20.297-19.781 4.9727-15.609 10.547-32.469 12.684-48.703 0.019532-0.15625-0.035156-0.27734-0.125-0.36328 0.066407-0.22266 0.13672-0.44531 0.20313-0.67969 3.1445 34.496-10.16 44.57-4.5117 73.145 8.4062 42.523 4.7148 26.52 5.9609 61.27-26.754-10.363-162.3-64.648-189.07-75.312 0.054687-4.3945-3.3477-11.004-3.3867-10.602-0.36328 3.6211 0.99219 6.5859 1.0938 9.6836zm-11.73-36.68c0.28906-4.3047 0.4375-7.8125 0.57812-12.195 0 4.0859-0.15234 8.1562-0.57812 12.195zm69.68-30.844c9.918-0.54297 15.211 4.0547 22.633 9.6211 2.8086 2.1055 5.0469 2.5938 8.5195 2.7656 24.258 1.1836 14.574 13.25 30.59 19.801-2.2773 12.023-6.1875 15.469-8.8164 24.992-4.4492 16.109 0.46094 15.574-6.9688 19.621-7.1914 3.918-4.7578 0.074219-7.9805-4.5234-9.3984-13.406-24.875-5.1016-37.555-12.77-9.957-6.0195-16.523-19.246-34.168-19.938 17.82-5.6094 31.273-25.062 31.617-39.945 0.44922-0.13281 0.83984-0.47266 0.88672-1.0078 0.90234-10.691 0.32031-21.609 0.14062-32.332-0.14453-8.625 0.27734-17.777-3.2383-25.855-3.6055-8.2773-10.688-14.16-18.84-16.684 2.2227-0.10156 4.5352 0.003907 5.9453 0.015625 12.68 0.10156 21.496 13.547 26.191 24 8.8242 19.645 15.438 40.02 21.016 60.785-10.629-3.5391-17.383-13.766-30.359-10.188-0.96094 0.26172-0.53125 1.6875 0.38672 1.6406zm-4.6289-47.957c1.4141 15.32-0.58594 30.859 1.0156 46.184-2.5664 0.69922-2.957 14.836-16.215 27.836-4.3125 4.2305-9.582 8.2422-15.574 9.6992-2.1289 0.51562-3.7383 0.69531-5.3516 1.2188-0.12109-14.66-0.054688-102.4 11.758-111.69 12.129 1.6328 22.938 11.285 24.367 26.754zm135.88 51.195c-0.042969 2.2578-0.11328 4.4961-0.16797 6.6914-0.23047 0.125-8.7344 28.949-9.5586 31.988-2.5977 9.582-4.5352 23.996-11.828 30.797-2.2734 3.6289-5.3945 3.1875-9.3672-1.332-0.5625-0.24219-1.0742-0.45312-1.5547-0.64844 8.0156-15.441 11.98-34.059 14.391-51.145 2.0938-14.832 5.1133-33.586-1.5195-47.664-0.15234-0.32422-0.69531-0.16406-0.60938 0.19922 7.6289 33.551-4.4297 66.289-13.602 98.074-5.2539-2.0469-4.6562-1.3516-5.0234-6.832-0.34766-5.2109-0.75781-10.465-0.91406-15.688-0.24609-8.3242 2.7891-16.25 0.14844-23.832-3.707-10.652-2.3164-13.637 1.4727-26.445 2.1602-7.3086 4.6445-15.391 9.9023-21.145 9.3242-10.203 22.535-5.2656 26.258 7.0742 1.6953 5.6133 2.0156 11.641 1.9844 17.598-0.40625 0.19141-0.27344 0.45312-0.011719 2.3086z"/>
  <path d="m567.33 452.47c30.68-39.695 49.664-124.1 50.383-176.26 0.77344-56.184-14.953-113.34-50.762-157.39-17.297-21.277-39.566-39.262-61.242-55.898-62.973-48.324-169.92-69.848-249.32-38.191-47.227 18.828-92.586 53.684-122.36 95.035-4.4336 6.1602-8.2969 12.664-11.719 19.402-59.312 94.062-52.004 223.43 17.039 310.65 101.95 128.78 323.47 137.88 427.98 2.6602zm-102.9 69.105c-87.195 37.531-216.14 25.684-296.81-52.438-85.156-82.453-98.684-216.93-45.074-319.88 26.855-41.852 65.238-77.797 108.34-102.29 48.586-27.613 105.89-34.332 160.39-23.43 67.656 13.535 92.539 29.453 146.72 78.074 40.684 36.504 63.973 87.867 69.496 141.93 6.0312 59.023-6.2539 122.96-31.012 176.8-20.828 45.309-66.98 81.832-112.06 101.23z"/>
  <path d="m254.87 222.04c-0.51953 0-0.56641 0.80859-0.042969 0.80859 0.51562 0 0.5625-0.80859 0.042969-0.80859z"/>
  <path d="m245.92 360.79c-0.94141-4.1797-3.5039-7.6992-5.9883-11.094-0.73828-1.0117-2.2578 0.1875-1.5273 1.2031 7.3945 10.293 5.5039 11.734 5.5625 20.457 0.027344 3.832 0.82422 6.8984 3.6211 9.6133 0.75781 0.73438 1.9961-0.50391 1.3125-1.3008-4.6406-5.4023-1.5547-12.555-2.9805-18.879z"/>
  <path d="m214.95 267.43c-0.13281 0-0.11719 0.20703 0.015625 0.20703s0.11719-0.20703-0.015625-0.20703z"/>
  <use x="70" y="591.109375" xlink:href="#u"/>
  <use x="77.609375" y="591.109375" xlink:href="#d"/>
  <use x="82.726562" y="591.109375" xlink:href="#b"/>
  <use x="89.757812" y="591.109375" xlink:href="#l"/>
  <use x="96.757812" y="591.109375" xlink:href="#a"/>
  <use x="101.714844" y="591.109375" xlink:href="#b"/>
  <use x="108.746094" y="591.109375" xlink:href="#k"/>
  <use x="119.78125" y="591.109375" xlink:href="#j"/>
  <use x="127.203125" y="591.109375" xlink:href="#i"/>
  <use x="137.574219" y="591.109375" xlink:href="#h"/>
  <use x="145.601562" y="591.109375" xlink:href="#b"/>
  <use x="152.632812" y="591.109375" xlink:href="#g"/>
  <use x="158.78125" y="591.109375" xlink:href="#a"/>
  <use x="163.738281" y="591.109375" xlink:href="#c"/>
  <use x="170.863281" y="591.109375" xlink:href="#d"/>
  <use x="175.976562" y="591.109375" xlink:href="#t"/>
  <use x="185.761719" y="591.109375" xlink:href="#f"/>
  <use x="193.359375" y="591.109375" xlink:href="#c"/>
  <use x="200.484375" y="591.109375" xlink:href="#s"/>
  <use x="204.039062" y="591.109375" xlink:href="#e"/>
  <use x="211.421875" y="591.109375" xlink:href="#a"/>
  <use x="70" y="601.480469" xlink:href="#r"/>
  <use x="74.511719" y="601.480469" xlink:href="#d"/>
  <use x="79.625" y="601.480469" xlink:href="#c"/>
  <use x="86.75" y="601.480469" xlink:href="#q"/>
  <use x="101.167969" y="601.480469" xlink:href="#a"/>
  <use x="106.125" y="601.480469" xlink:href="#p"/>
  <use x="113.507812" y="601.480469" xlink:href="#b"/>
  <use x="124.152344" y="601.480469" xlink:href="#o"/>
  <use x="132.828125" y="601.480469" xlink:href="#c"/>
  <use x="139.953125" y="601.480469" xlink:href="#n"/>
  <use x="147.335938" y="601.480469" xlink:href="#e"/>
  <use x="158.332031" y="601.480469" xlink:href="#f"/>
  <use x="165.929688" y="601.480469" xlink:href="#d"/>
  <use x="171.046875" y="601.480469" xlink:href="#c"/>
  <use x="178.167969" y="601.480469" xlink:href="#m"/>
  <use x="181.722656" y="601.480469" xlink:href="#b"/>
  <use x="188.757812" y="601.480469" xlink:href="#g"/>
  <use x="194.90625" y="601.480469" xlink:href="#a"/>
 </g>
</svg>
